<svg width="100" height="100" viewBox="0 0 100 100" fill="none" xmlns="http://www.w3.org/2000/svg">
<path d="M40.5986 74.9023C43.0219 74.9023 44.9932 72.9311 44.9932 70.5078C44.9932 68.0846 43.0219 66.1133 40.5986 66.1133C38.1754 66.1133 36.2041 68.0846 36.2041 70.5078C36.2041 72.9311 38.1754 74.9023 40.5986 74.9023ZM40.5986 69.043C41.4064 69.043 42.0635 69.7 42.0635 70.5078C42.0635 71.3156 41.4064 71.9727 40.5986 71.9727C39.7908 71.9727 39.1338 71.3156 39.1338 70.5078C39.1338 69.7 39.7908 69.043 40.5986 69.043Z" fill="black"/>
<path d="M43.5283 60.2541H46.458V63.1838H43.5283V60.2541Z" fill="black"/>
<path d="M49.3877 66.1133H52.3174V69.043H49.3877V66.1133Z" fill="black"/>
<path d="M48.5354 33.8867H51.465V36.8164H48.5354V33.8867Z" fill="black"/>
<path d="M48.5354 28.0273H51.465V30.957H48.5354V28.0273Z" fill="black"/>
<path d="M85.3555 14.6445C75.9115 5.20098 63.3555 0 50 0C36.6445 0 24.0885 5.20098 14.6445 14.6445C5.20098 24.0885 0 36.6445 0 50C0 63.3555 5.20098 75.9115 14.6445 85.3555C24.0885 94.799 36.6445 100 50 100C63.3555 100 75.9115 94.799 85.3555 85.3555C94.799 75.9115 100 63.3555 100 50C100 36.6445 94.799 24.0885 85.3555 14.6445ZM83.2838 83.2838C74.3934 92.1742 62.573 97.0703 50 97.0703C37.427 97.0703 25.6066 92.1742 16.7162 83.2838C7.82578 74.3934 2.92969 62.573 2.92969 50C2.92969 37.427 7.82578 25.6066 16.7162 16.7162C25.6066 7.82578 37.427 2.92969 50 2.92969C62.573 2.92969 74.3934 7.82578 83.2838 16.7162C92.1742 25.6066 97.0703 37.427 97.0703 50C97.0703 62.573 92.1742 74.3934 83.2838 83.2838Z" fill="black"/>
<path d="M16.7191 21.0037C9.71621 29.0346 5.85938 39.3324 5.85938 50C5.85938 61.7912 10.4506 72.8762 18.7871 81.2129C27.1238 89.5494 38.2088 94.1406 50 94.1406C60.6678 94.1406 70.9654 90.2838 78.9963 83.2809L80.1783 82.25L17.75 19.8215L16.7191 21.0037ZM40.1143 46.3291L35.3359 56.9336L38.007 58.1371L42.3297 48.5443L68.782 74.9967C68.4346 77.4465 66.0863 77.832 64.6484 77.832H35.3516C33.5775 77.832 32.3482 77.3217 31.6977 76.315C30.9318 75.1299 31.1014 73.4623 31.609 72.3354L36.8029 60.8086L34.1318 59.6051L28.9379 71.1318C27.9201 73.3904 28.0375 76.0492 29.2369 77.9053C30.0791 79.2084 31.8234 80.7617 35.3514 80.7617H64.6482C68.1559 80.7617 70.151 79.2082 71.0877 77.3027L75.8672 82.0822C68.5588 87.9801 59.4344 91.2109 50 91.2109C38.9912 91.2109 28.642 86.9244 20.8588 79.1412C13.0756 71.358 8.78906 61.0088 8.78906 50C8.78906 40.5656 12.0199 31.4412 17.9178 24.1324L40.1143 46.3291Z" fill="black"/>
<path d="M81.2129 18.7871C72.8762 10.4506 61.7912 5.85938 50 5.85938C39.333 5.85938 29.0352 9.71602 21.0037 16.7191L19.8215 17.75L71.0334 68.9621L73.1049 66.8906L65.9076 59.6934L57.3244 40.6453V24.8457C59.0293 24.241 60.2541 22.6129 60.2541 20.7031C60.2541 18.2799 58.2828 16.3086 55.8596 16.3086H44.1406C41.7174 16.3086 39.7461 18.2799 39.7461 20.7031C39.7461 22.6129 40.9709 24.241 42.6758 24.8457V36.4609L24.1326 17.9176C31.4416 12.0199 40.566 8.78906 50 8.78906C61.0088 8.78906 71.358 13.0756 79.1412 20.8588C86.9244 28.642 91.2109 38.9912 91.2109 50C91.2109 59.434 87.9801 68.5584 82.0822 75.8676L79.3197 73.1051L77.2482 75.1766L82.25 80.1785L83.2809 78.9963C90.2838 70.9649 94.1406 60.6672 94.1406 50C94.1406 38.2088 89.5494 27.1238 81.2129 18.7871ZM44.1406 19.2383H55.8596C56.6672 19.2383 57.3244 19.8955 57.3244 20.7031C57.3244 21.5107 56.6674 22.168 55.8596 22.168H44.1406C43.333 22.168 42.6758 21.5107 42.6758 20.7031C42.6758 19.8955 43.333 19.2383 44.1406 19.2383ZM45.6055 25.0977H54.3947V41.2744L60.0586 53.8439L45.6055 39.3906V25.0977Z" fill="black"/>
<path d="M73.0897 71.034L75.161 68.9627L77.2323 71.034L75.161 73.1053L73.0897 71.034Z" fill="black"/>
</svg>
