<svg width="221" height="100" viewBox="0 0 221 100" fill="none" xmlns="http://www.w3.org/2000/svg">
<g clip-path="url(#clip0)">
<path d="M147.518 90.3466C146.879 90.5905 146.3 90.9691 145.82 91.4566C144.863 92.3865 144.327 93.6659 144.333 95C144.333 97.7614 146.572 100 149.333 100H192.667C195.422 99.9863 197.653 97.7557 197.667 95C197.662 92.9435 196.398 91.0998 194.482 90.3533L196.128 74.7317C204.438 61.9873 201.893 45.0404 190.205 35.3C195.769 32.566 198.714 26.3579 197.313 20.319C195.911 14.2802 190.533 10.004 184.333 10V5C184.333 2.23858 182.095 0 179.333 0H162.667C159.905 0 157.667 2.23858 157.667 5V13.3333C157.671 15.0749 158.584 16.6879 160.075 17.5883L157.945 31.3333C147.61 36.3654 141.037 46.8383 141 58.3333C140.987 64.158 142.681 69.8588 145.872 74.7317L147.518 90.3466ZM194.333 23.3333C194.35 27.8423 191.326 31.7962 186.97 32.9617C186.031 32.3579 185.054 31.8157 184.045 31.3383L181.925 17.5883C183.416 16.6883 184.329 15.0751 184.333 13.3333C189.854 13.3388 194.328 17.8128 194.333 23.3333ZM162.667 3.33333H179.333C180.254 3.33333 181 4.07952 181 5V8.33333H172.667C171.746 8.33333 171 9.07952 171 10C171 10.9205 171.746 11.6667 172.667 11.6667H181V13.3333C181 14.2538 180.254 15 179.333 15H162.667C161.746 15 161 14.2538 161 13.3333V11.6667H166C166.921 11.6667 167.667 10.9205 167.667 10C167.667 9.07952 166.921 8.33333 166 8.33333H161V5C161 4.07952 161.746 3.33333 162.667 3.33333ZM159.393 34.3333C160.382 33.8591 161.076 32.9297 161.248 31.8467L163.333 18.3333H178.667L180.752 31.8467C180.922 32.9388 181.624 33.8752 182.623 34.3467C183.721 34.8738 184.779 35.4792 185.79 36.1583C185.835 36.1902 185.882 36.2186 185.932 36.2433C193.021 41.0361 197.38 48.9398 197.65 57.4929C197.92 66.046 194.069 74.2092 187.297 79.44C186.644 80.0232 186.554 81.0116 187.09 81.7032C187.626 82.3949 188.606 82.5543 189.333 82.0683C190.368 81.2645 191.35 80.395 192.273 79.465L191.167 90H166C165.08 90 164.333 90.7462 164.333 91.6666C164.333 92.5871 165.08 93.3333 166 93.3333H192.667C193.587 93.3333 194.333 94.0795 194.333 95C194.335 95.4491 194.15 95.8787 193.823 96.1867C193.519 96.4977 193.102 96.671 192.667 96.6666H149.333C148.413 96.6666 147.667 95.9205 147.667 95C147.665 94.5509 147.85 94.1213 148.177 93.8133C148.481 93.5023 148.899 93.3289 149.333 93.3333H157.667C158.587 93.3333 159.333 92.5871 159.333 91.6666C159.333 90.7462 158.587 90 157.667 90H150.833L149.723 79.465C150.648 80.3951 151.631 81.2646 152.667 82.0683C153.395 82.6317 154.442 82.4981 155.005 81.77C155.568 81.0419 155.435 79.995 154.707 79.4317C147.391 73.7908 143.519 64.7637 144.474 55.5756C145.429 46.3875 151.075 38.3494 159.393 34.3333Z" fill="black"/>
<path d="M153.772 70.1667C154.37 70.1662 154.922 69.8451 155.218 69.3253C155.515 68.8054 155.51 68.1667 155.205 67.6517C150.949 60.4495 152.109 51.28 158.023 45.3638C163.937 39.4475 173.106 38.2851 180.31 42.5383C181.1 42.9743 182.094 42.7022 182.552 41.9244C183.009 41.1466 182.765 40.1458 182 39.6667C173.49 34.6516 162.664 36.0277 155.679 43.0127C148.694 49.9977 147.318 60.8229 152.333 69.3333C152.63 69.8475 153.178 70.1649 153.772 70.1667Z" fill="black"/>
<path d="M161.69 74.1283C160.9 73.6923 159.906 73.9645 159.448 74.7423C158.991 75.5201 159.235 76.5209 160 77C168.511 82.0151 179.336 80.6389 186.321 73.654C193.306 66.669 194.682 55.8438 189.667 47.3333C189.364 46.8207 188.81 46.5086 188.215 46.5148C187.619 46.5209 187.072 46.8443 186.78 47.3631C186.487 47.8819 186.494 48.5173 186.797 49.03C191.039 56.2319 189.873 65.3914 183.962 71.3007C178.05 77.21 168.89 78.373 161.69 74.1283Z" fill="black"/>
</g>
<path d="M66.074 45.3783L60.9375 43.8375V37.5C60.9375 36.6371 60.2379 35.9375 59.375 35.9375H46.875C46.0121 35.9375 45.3125 36.6371 45.3125 37.5V42.1236C43.6104 42.3023 41.9172 42.5977 40.2461 43.0154C34.3855 44.4807 28.2293 44.3377 22.4432 42.6016L16.0742 40.6908C15.0689 40.3895 14.0625 41.1445 14.0625 42.1875V89.0625C14.0625 91.6471 16.1654 93.75 18.75 93.75H62.5C65.0846 93.75 67.1875 91.6471 67.1875 89.0625V46.875C67.1875 46.185 66.735 45.5768 66.074 45.3783ZM48.4375 45.0563C51.5898 44.9893 54.7471 45.3631 57.8125 46.1807V48.4375H48.4375V45.0563ZM48.4375 39.0625H57.8125V42.96C54.7369 42.2139 51.5857 41.8695 48.4375 41.9307V39.0625ZM64.0625 89.0625C64.0625 89.924 63.3615 90.625 62.5 90.625H18.75C17.8885 90.625 17.1875 89.924 17.1875 89.0625V44.2875L21.5451 45.5947C27.8695 47.492 34.5982 47.6484 41.0041 46.0471C42.426 45.6916 43.8654 45.4328 45.3127 45.2664V50C45.3127 50.8629 46.0123 51.5625 46.8752 51.5625H59.3752C60.2381 51.5625 60.9377 50.8629 60.9377 50V47.1L64.0627 48.0375V89.0625H64.0625Z" fill="black"/>
<path d="M41.1938 58.8561L32.3549 50.0172C31.7447 49.407 30.7555 49.407 30.1453 50.0172L21.3065 58.8561C20.6961 59.4662 20.6961 60.4555 21.3065 61.0656L30.1453 69.9045C30.7557 70.5149 31.7447 70.5147 32.3549 69.9045L41.1938 61.0656C41.8039 60.4557 41.8039 59.4662 41.1938 58.8561ZM31.25 66.5901L24.6209 59.961L31.25 53.3318L37.8791 59.961L31.25 66.5901Z" fill="black"/>
<path d="M56.2494 60.7193C55.6371 60.1201 54.657 60.1254 54.0516 60.7311L34.1688 80.6139C33.5631 81.2195 33.558 82.1998 34.157 82.8117C43.3422 92.1938 59.3926 86.6633 60.8422 73.6002C61.3576 68.9711 59.8195 64.2147 56.2494 60.7193ZM55.1016 64.1004C56.8215 66.2529 57.7688 68.894 57.8086 71.6912L48.5404 70.6615L55.1016 64.1004ZM44.099 75.1029L45.1287 84.3711C42.3315 84.3311 39.6904 83.384 37.5379 81.6641L44.099 75.1029ZM48.2346 84.0266L47.0811 73.6436L57.4641 74.7971C56.3701 79.3461 52.7836 82.9326 48.2346 84.0266Z" fill="black"/>
<path d="M25 85.9375C25.8629 85.9375 26.5625 85.2379 26.5625 84.375C26.5625 83.5121 25.8629 82.8125 25 82.8125C24.1371 82.8125 23.4375 83.5121 23.4375 84.375C23.4375 85.2379 24.1371 85.9375 25 85.9375Z" fill="black"/>
<path d="M23.4375 75C24.3004 75 25 74.3004 25 73.4375C25 72.5746 24.3004 71.875 23.4375 71.875C22.5746 71.875 21.875 72.5746 21.875 73.4375C21.875 74.3004 22.5746 75 23.4375 75Z" fill="black"/>
<path d="M48.4375 59.375C49.3004 59.375 50 58.6754 50 57.8125C50 56.9496 49.3004 56.25 48.4375 56.25C47.5746 56.25 46.875 56.9496 46.875 57.8125C46.875 58.6754 47.5746 59.375 48.4375 59.375Z" fill="black"/>
<path d="M81.25 35.9375H73.4375C73.4375 34.3463 73.4658 33.9633 73.332 33.2381C79.9076 30.7215 84.375 24.3404 84.375 17.1875C84.375 7.71035 76.6646 0 67.1875 0C58.2371 0 50.8639 6.87734 50.0717 15.625H17.1875C14.6029 15.625 12.5 17.7279 12.5 20.3125V28.3229C9.80742 29.0184 7.8125 31.468 7.8125 34.375V89.0625C7.8125 95.0934 12.7191 100 18.75 100H62.5C68.5309 100 73.4375 95.0934 73.4375 89.0625V85.9375H81.25C87.2809 85.9375 92.1875 81.0309 92.1875 75V46.875C92.1875 40.8441 87.2809 35.9375 81.25 35.9375ZM73.4375 45.3125H81.25C82.1115 45.3125 82.8125 46.0135 82.8125 46.875V75C82.8125 75.8615 82.1115 76.5625 81.25 76.5625H73.4375V45.3125ZM67.1875 3.125C74.9416 3.125 81.25 9.4334 81.25 17.1875C81.25 23.1162 77.5008 28.3979 72.0066 30.3996C71.1787 29.3977 70.0451 28.6574 68.75 28.3229V20.3125C68.75 17.7279 66.6471 15.625 64.0625 15.625H53.2139C53.9939 8.60391 59.9617 3.125 67.1875 3.125ZM17.1875 18.75H64.0625C64.924 18.75 65.625 19.451 65.625 20.3125V21.875H57.8125C56.9496 21.875 56.25 22.5746 56.25 23.4375C56.25 24.3004 56.9496 25 57.8125 25H65.625V28.125H15.625V25H48.4375C49.3004 25 50 24.3004 50 23.4375C50 22.5746 49.3004 21.875 48.4375 21.875H15.625V20.3125C15.625 19.451 16.326 18.75 17.1875 18.75ZM70.3125 89.0625C70.3125 93.3703 66.8078 96.875 62.5 96.875H18.75C14.4422 96.875 10.9375 93.3703 10.9375 89.0625V34.375C10.9375 32.652 12.3395 31.25 14.0625 31.25H67.1875C68.9105 31.25 70.3125 32.652 70.3125 34.375V89.0625ZM89.0625 75C89.0625 79.3078 85.5578 82.8125 81.25 82.8125H73.4375V79.6875H81.25C83.8346 79.6875 85.9375 77.5846 85.9375 75V46.875C85.9375 44.2904 83.8346 42.1875 81.25 42.1875H73.4375V39.0625H81.25C85.5578 39.0625 89.0625 42.5672 89.0625 46.875V75Z" fill="black"/>
<defs>
<clipPath id="clip0">
<rect width="100" height="100" fill="white" transform="translate(121)"/>
</clipPath>
</defs>
</svg>
