<svg width="100" height="100" viewBox="0 0 100 100" fill="none" xmlns="http://www.w3.org/2000/svg">
<path d="M95.3125 53.125H92.1875V34.1062C93.2296 33.7373 94.1077 33.012 94.6668 32.0584C95.2259 31.1048 95.43 29.9843 95.2431 28.8948C95.0562 27.8053 94.4902 26.8169 93.6452 26.1042C92.8001 25.3915 91.7304 25.0004 90.625 25V17.8346C90.625 16.0054 89.8983 14.2511 88.6049 12.9576C87.3114 11.6642 85.5572 10.9375 83.7279 10.9375H70.3125V14.0625H83.7281C84.7285 14.0626 85.6879 14.4601 86.3952 15.1674C87.1025 15.8748 87.4999 16.8342 87.5 17.8346V25H81.25V18.75C81.25 18.3356 81.0854 17.9382 80.7924 17.6451C80.4993 17.3521 80.1019 17.1875 79.6875 17.1875H75V20.3125H78.125V25C77.0196 25.0004 75.9499 25.3915 75.1048 26.1042C74.2598 26.8169 73.6938 27.8053 73.5069 28.8948C73.32 29.9843 73.5241 31.1048 74.0832 32.0584C74.6423 33.012 75.5204 33.7373 76.5625 34.1062V53.125H68.75V27.8562C69.7921 27.4873 70.6702 26.762 71.2293 25.8084C71.7884 24.8548 71.9925 23.7343 71.8056 22.6448C71.6187 21.5553 71.0527 20.5669 70.2077 19.8542C69.3626 19.1415 68.2929 18.7504 67.1875 18.75V10.0221C67.1875 8.19285 66.4608 6.43856 65.1674 5.1451C63.8739 3.85165 62.1196 3.125 60.2904 3.125H23.4375V6.25H60.2904C61.2908 6.25005 62.2502 6.64748 62.9576 7.35487C63.665 8.06226 64.0624 9.02167 64.0625 10.0221V18.75H57.8125V12.5C57.8125 12.0856 57.6479 11.6882 57.3549 11.3951C57.0618 11.1021 56.6644 10.9375 56.25 10.9375H32.8125V14.0625H54.6875V18.75C53.5821 18.7504 52.5124 19.1415 51.6673 19.8542C50.8223 20.5669 50.2563 21.5553 50.0694 22.6448C49.8825 23.7343 50.0866 24.8548 50.6457 25.8084C51.2048 26.762 52.083 27.4873 53.125 27.8562V53.125H46.875V39.0625C46.875 38.8089 46.8133 38.5591 46.6952 38.3347C46.5771 38.1103 46.4061 37.918 46.1971 37.7745C45.9881 37.6309 45.7472 37.5404 45.4954 37.5107C45.2435 37.481 44.9882 37.5131 44.7516 37.6041L4.12656 53.2291C3.83178 53.3425 3.57828 53.5425 3.39949 53.8029C3.22069 54.0632 3.12499 54.3717 3.125 54.6875V67.1875C3.125 67.6019 3.28962 67.9993 3.58265 68.2924C3.87567 68.5854 4.2731 68.75 4.6875 68.75H9.375V95.3125C9.375 95.7269 9.53962 96.1243 9.83265 96.4174C10.1257 96.7104 10.5231 96.875 10.9375 96.875H95.3125C95.7269 96.875 96.1243 96.7104 96.4174 96.4174C96.7104 96.1243 96.875 95.7269 96.875 95.3125V54.6875C96.875 54.2731 96.7104 53.8757 96.4174 53.5826C96.1243 53.2896 95.7269 53.125 95.3125 53.125ZM78.125 28.125H90.625C91.0394 28.125 91.4368 28.2896 91.7299 28.5826C92.0229 28.8757 92.1875 29.2731 92.1875 29.6875C92.1875 30.1019 92.0229 30.4993 91.7299 30.7924C91.4368 31.0854 91.0394 31.25 90.625 31.25H78.125C77.7106 31.25 77.3132 31.0854 77.0201 30.7924C76.7271 30.4993 76.5625 30.1019 76.5625 29.6875C76.5625 29.2731 76.7271 28.8757 77.0201 28.5826C77.3132 28.2896 77.7106 28.125 78.125 28.125ZM79.6875 34.375H89.0625V53.125H79.6875V34.375ZM54.6875 21.875H67.1875C67.6019 21.875 67.9993 22.0396 68.2924 22.3326C68.5854 22.6257 68.75 23.0231 68.75 23.4375C68.75 23.8519 68.5854 24.2493 68.2924 24.5424C67.9993 24.8354 67.6019 25 67.1875 25H54.6875C54.2731 25 53.8757 24.8354 53.5826 24.5424C53.2896 24.2493 53.125 23.8519 53.125 23.4375C53.125 23.0231 53.2896 22.6257 53.5826 22.3326C53.8757 22.0396 54.2731 21.875 54.6875 21.875ZM56.25 28.125H65.625V53.125H56.25V28.125ZM43.75 65.625H39.0625V43.1404L43.75 41.3375V65.625ZM15.625 65.625V52.1549L20.3125 50.352V65.625H15.625ZM23.4375 49.15L28.125 47.3473V62.5H31.25V46.1453L35.9375 44.3424V65.625H23.4375V49.15ZM6.25 65.625V55.7617L12.5 53.3578V65.625H6.25ZM68.75 87.5H71.875V93.75H68.75V87.5ZM78.125 93.75H75V82.8125C75 82.3981 75.1646 82.0007 75.4576 81.7076C75.7507 81.4146 76.1481 81.25 76.5625 81.25C76.9769 81.25 77.3743 81.4146 77.6674 81.7076C77.9604 82.0007 78.125 82.3981 78.125 82.8125V93.75ZM76.5625 78.125C75.3197 78.1264 74.1283 78.6207 73.2495 79.4995C72.3707 80.3783 71.8764 81.5697 71.875 82.8125V84.375H68.75V82.8125C68.75 81.5693 68.2561 80.377 67.3771 79.4979C66.498 78.6189 65.3057 78.125 64.0625 78.125C62.8193 78.125 61.627 78.6189 60.7479 79.4979C59.8689 80.377 59.375 81.5693 59.375 82.8125V84.375H57.659C57.2855 84.3746 56.9273 84.226 56.6632 83.9619C56.3991 83.6978 56.2505 83.3397 56.25 82.9662V76.4088C56.2505 76.0353 56.3991 75.6772 56.6632 75.4131C56.9273 75.149 57.2855 75.0004 57.659 75H82.966C83.3395 75.0004 83.6976 75.149 83.9618 75.4131C84.2259 75.6772 84.3745 76.0353 84.375 76.4088V82.9662C84.3745 83.3397 84.2259 83.6978 83.9618 83.9619C83.6976 84.226 83.3395 84.3746 82.966 84.375H81.25V82.8125C81.2486 81.5697 80.7543 80.3783 79.8755 79.4995C78.9967 78.6207 77.8053 78.1264 76.5625 78.125ZM62.5 82.8125C62.5 82.3981 62.6646 82.0007 62.9576 81.7076C63.2507 81.4146 63.6481 81.25 64.0625 81.25C64.4769 81.25 64.8743 81.4146 65.1674 81.7076C65.4604 82.0007 65.625 82.3981 65.625 82.8125V93.75H62.5V82.8125ZM93.75 93.75H81.25V87.5H82.966C84.1681 87.4987 85.3205 87.0206 86.1705 86.1706C87.0205 85.3207 87.4986 84.1683 87.5 82.9662V76.4088C87.4986 75.2067 87.0205 74.0543 86.1705 73.2044C85.3205 72.3544 84.1681 71.8763 82.966 71.875H57.659C56.4569 71.8763 55.3045 72.3544 54.4545 73.2044C53.6045 74.0543 53.1264 75.2067 53.125 76.4088V82.9662C53.1264 84.1683 53.6045 85.3207 54.4545 86.1706C55.3045 87.0206 56.4569 87.4987 57.659 87.5H59.375V93.75H46.875V84.375H43.75V93.75H12.5V68.75H43.75V81.25H46.875V56.25H93.75V93.75Z" fill="black"/>
<path d="M60.9375 68.75H67.1875C67.6019 68.75 67.9993 68.5854 68.2924 68.2924C68.5854 67.9993 68.75 67.6019 68.75 67.1875V60.9375C68.75 60.5231 68.5854 60.1257 68.2924 59.8326C67.9993 59.5396 67.6019 59.375 67.1875 59.375H60.9375C60.5231 59.375 60.1257 59.5396 59.8326 59.8326C59.5396 60.1257 59.375 60.5231 59.375 60.9375V67.1875C59.375 67.6019 59.5396 67.9993 59.8326 68.2924C60.1257 68.5854 60.5231 68.75 60.9375 68.75ZM62.5 62.5H65.625V65.625H62.5V62.5Z" fill="black"/>
<path d="M73.4375 68.75H79.6875C80.1019 68.75 80.4993 68.5854 80.7924 68.2924C81.0854 67.9993 81.25 67.6019 81.25 67.1875V60.9375C81.25 60.5231 81.0854 60.1257 80.7924 59.8326C80.4993 59.5396 80.1019 59.375 79.6875 59.375H73.4375C73.0231 59.375 72.6257 59.5396 72.3326 59.8326C72.0396 60.1257 71.875 60.5231 71.875 60.9375V67.1875C71.875 67.6019 72.0396 67.9993 72.3326 68.2924C72.6257 68.5854 73.0231 68.75 73.4375 68.75ZM75 62.5H78.125V65.625H75V62.5Z" fill="black"/>
<path d="M25 73.4375H18.75C18.3356 73.4375 17.9382 73.6021 17.6451 73.8951C17.3521 74.1882 17.1875 74.5856 17.1875 75V87.5C17.1875 87.9144 17.3521 88.3118 17.6451 88.6049C17.9382 88.8979 18.3356 89.0625 18.75 89.0625H25C25.4144 89.0625 25.8118 88.8979 26.1049 88.6049C26.3979 88.3118 26.5625 87.9144 26.5625 87.5V75C26.5625 74.5856 26.3979 74.1882 26.1049 73.8951C25.8118 73.6021 25.4144 73.4375 25 73.4375ZM23.4375 85.9375H20.3125V76.5625H23.4375V85.9375Z" fill="black"/>
<path d="M37.5 73.4375H31.25C30.8356 73.4375 30.4382 73.6021 30.1451 73.8951C29.8521 74.1882 29.6875 74.5856 29.6875 75V87.5C29.6875 87.9144 29.8521 88.3118 30.1451 88.6049C30.4382 88.8979 30.8356 89.0625 31.25 89.0625H37.5C37.9144 89.0625 38.3118 88.8979 38.6049 88.6049C38.8979 88.3118 39.0625 87.9144 39.0625 87.5V75C39.0625 74.5856 38.8979 74.1882 38.6049 73.8951C38.3118 73.6021 37.9144 73.4375 37.5 73.4375ZM35.9375 85.9375H32.8125V76.5625H35.9375V85.9375Z" fill="black"/>
<path d="M29.6875 10.9375H26.5625V14.0625H29.6875V10.9375Z" fill="black"/>
</svg>
