<svg width="100" height="100" viewBox="0 0 100 100" fill="none" xmlns="http://www.w3.org/2000/svg">
<g clip-path="url(#clip0)">
<path d="M73.4779 18.5708C72.7149 19.3345 72.7149 20.5712 73.4779 21.3326C74.24 22.0963 75.4783 22.0963 76.2397 21.3326C77.0034 20.5712 77.0034 19.3345 76.2397 18.5708C75.4783 17.8093 74.24 17.8093 73.4779 18.5708Z" fill="black"/>
<path d="M22.3793 19.9517C21.6156 20.7154 21.6156 21.9521 22.3793 22.7135C23.1415 23.4772 24.3797 23.4772 25.1411 22.7135C25.9048 21.9521 25.9048 20.7154 25.1411 19.9517C24.3797 19.1903 23.1415 19.1903 22.3793 19.9517Z" fill="black"/>
<path d="M98.2826 24.1486L81.7108 7.5768C79.4212 5.28722 75.7156 5.28646 73.4253 7.5768L64.2616 16.7405C59.6359 15.0902 54.4342 16.0592 50.7042 19.2963C45.9084 16.9884 40.3168 16.9816 35.5171 19.278L26.5747 10.3112C24.2851 8.0216 20.5795 8.02083 18.2892 10.3112L1.71738 26.883C-0.574493 29.1756 -0.569916 32.8812 1.71585 35.167C1.92719 35.3791 11.0435 44.5199 11.3312 44.8083C10.9032 47.8257 11.911 50.9171 14.0915 53.0976L11.3304 55.8594C8.27942 58.9097 8.27789 63.8558 11.3312 66.9091C12.9105 68.4868 15.0787 69.3154 17.3462 69.1742C17.2035 71.4531 18.0313 73.6069 19.6167 75.1923C21.1632 76.7403 23.3002 77.6093 25.6325 77.4651C25.4906 79.7623 26.3321 81.9077 27.9022 83.4801C29.4662 85.0442 31.6093 85.8941 33.9172 85.7522C33.7761 88.0501 34.6184 90.1963 36.19 91.7679C39.2357 94.8113 44.1917 94.8113 47.2389 91.7664L50 89.0046L52.7618 91.7679C55.8083 94.8113 60.7635 94.8105 63.81 91.7672C65.4564 90.1208 66.2109 87.9159 66.0782 85.756C68.5699 85.92 70.932 84.8885 72.5311 83.0079C73.8487 81.4606 74.4133 79.4533 74.2554 77.4567C76.59 77.6337 78.7827 76.7937 80.3818 75.1938C81.9649 73.6115 82.7957 71.4577 82.6538 69.1735C84.9213 69.3146 87.0911 68.4846 88.6696 66.9076C91.713 63.8611 91.713 58.9051 88.6688 55.8587L87.1887 54.3793C89.9185 50.7264 90.657 45.9115 89.119 41.5978L98.2819 32.4341C100.572 30.1438 100.573 26.439 98.2826 24.1486ZM14.093 64.1465C12.5687 62.6214 12.5671 60.1471 14.093 58.6213C17.0578 55.6557 19.413 53.3005 22.3793 50.3342C23.9021 48.8122 26.3794 48.8114 27.9022 50.3342C29.4167 51.8487 29.4418 54.3206 27.9045 55.8571C27.9037 55.8579 27.9037 55.8579 27.903 55.8587L27.9022 55.8594L19.6182 64.1457C18.0946 65.6678 15.6158 65.6678 14.093 64.1465ZM22.3801 72.4312C20.8527 70.9038 20.8519 68.4372 22.3793 66.9091C22.3793 66.9083 22.3793 66.9083 22.3801 66.9083L30.6641 58.622C32.1877 57.1 34.6664 57.1 36.19 58.6213C37.7205 60.1517 37.7144 62.6221 36.19 64.1457L27.9022 72.432C26.3771 73.9586 23.9067 73.9586 22.3801 72.4312ZM30.6656 80.719C29.1382 79.1886 29.142 76.7205 30.6641 75.1938C30.6648 75.1938 30.6648 75.1938 30.6648 75.1931L38.9519 66.9083L38.9526 66.9076C40.4762 65.3847 42.9543 65.3855 44.4756 66.9068C46.003 68.4365 46.0007 70.9038 44.4771 72.4305C44.4771 72.4305 44.4771 72.4305 44.4763 72.4312C44.4763 72.4312 44.4763 72.4312 44.4756 72.432L36.1893 80.7183C34.6611 82.2465 32.1907 82.2434 30.6656 80.719ZM44.4771 89.0046C42.9535 90.5266 40.4747 90.5266 38.9519 89.0053C37.4252 87.4787 37.4237 85.0091 38.9511 83.4809L38.9519 83.4801L47.2366 75.1946C47.2374 75.1946 47.2382 75.1938 47.2389 75.1931C48.764 73.668 51.236 73.6672 52.7618 75.1931C54.2885 76.7197 54.2892 79.1901 52.7618 80.7183C49.9657 83.5152 47.5548 85.9261 44.4771 89.0046ZM61.0489 89.0046C59.5253 90.5266 57.0465 90.5266 55.5244 89.0053L52.7626 86.242L55.5237 83.4801C56.5094 82.4944 57.1976 81.2913 57.547 79.979L61.0481 83.4801C62.5717 85.0037 62.5717 87.4817 61.0489 89.0046ZM85.9085 64.1457C84.3842 65.6678 81.9054 65.6678 80.3833 64.1465L72.0978 55.8594C71.3356 55.0965 70.0989 55.0973 69.3359 55.8587C68.573 56.6216 68.573 57.8583 69.3352 58.6213L77.6215 66.9091C79.1443 68.4304 79.1519 70.9008 77.6199 72.432C76.0994 73.9533 73.6313 73.9655 72.0909 72.4244L71.9032 72.2382L63.8107 64.1465C63.0478 63.3835 61.8111 63.3835 61.0481 64.1465C60.2852 64.9087 60.2852 66.1454 61.0481 66.9083L69.1292 74.9886C70.6322 76.5854 70.8214 78.991 69.5564 80.4764C68.499 81.72 66.8236 82.1793 65.2863 81.6468C63.8268 81.1402 64.0045 80.7427 55.5237 72.4312C53.9795 70.887 51.844 70.0165 49.5087 70.1607C49.6498 67.8643 48.8083 65.7189 47.2382 64.1465C45.591 62.4985 43.3838 61.744 41.2231 61.879C41.3651 59.5994 40.538 57.4456 38.9511 55.8587C37.3032 54.2122 35.0967 53.4585 32.9361 53.5935C33.078 51.3138 32.251 49.1585 30.6648 47.5724C27.6192 44.5267 22.6631 44.5267 19.6175 47.5724L16.8541 50.3357C15.3793 48.861 14.7987 46.6912 15.3389 44.6724C15.5182 44.0003 15.3267 43.2824 14.8346 42.7887L9.95789 37.8991L19.6182 28.2387C20.3804 27.4766 20.3804 26.2398 19.6182 25.4769C18.8553 24.7139 17.6186 24.7139 16.8564 25.4769L7.19986 35.1334L4.47998 32.4067C3.71628 31.643 3.71628 30.4085 4.47998 29.6448L21.0518 13.073C21.8193 12.3055 23.0545 12.3147 23.8113 13.0715L33.7738 23.0614C34.4032 23.6924 35.3821 23.8175 36.1504 23.3635C39.6782 21.2792 43.911 20.9137 47.6875 22.2634L37.5702 32.3815C34.5268 35.4271 34.5268 40.3832 37.571 43.4304C40.6174 46.4737 45.5727 46.4737 48.6198 43.4296L52.7626 39.2869C56.5781 35.4699 62.7548 35.4683 66.5718 39.2876L85.907 58.6205C87.429 60.1441 87.429 62.6236 85.9085 64.1457ZM95.5208 29.6723L91.4307 33.7616L81.7635 24.096C81.0005 23.333 79.7638 23.3338 79.0009 24.096C78.2387 24.8589 78.2387 26.0956 79.0009 26.8586L88.6688 36.5243L85.4347 39.7576C84.8495 40.3435 84.697 41.2346 85.054 41.9816C86.5486 45.1081 86.248 48.7565 84.3864 51.5763L69.3344 36.5258C63.9923 31.1814 55.3429 31.1799 50 36.5258L45.858 40.6678C44.3344 42.1898 41.8549 42.1898 40.3328 40.6685C38.8107 39.145 38.8107 36.6662 40.3328 35.1433C42.9909 32.4853 48.4505 27.0257 52.7618 22.7135C55.6847 19.7907 60.1517 19.0247 63.8779 20.8054C64.6248 21.1625 65.5159 21.0099 66.1018 20.4247L76.1871 10.3386C76.9501 9.5757 78.1853 9.57494 78.949 10.3386L95.5208 26.9112C96.2822 27.6726 96.2852 28.9071 95.5208 29.6723Z" fill="black"/>
</g>
<defs>
<clipPath id="clip0">
<rect width="100" height="100" fill="white"/>
</clipPath>
</defs>
</svg>
