<svg width="100" height="100" viewBox="0 0 100 100" fill="none" xmlns="http://www.w3.org/2000/svg">
<g clip-path="url(#clip0)">
<path d="M91.1308 92.7139C90.1462 85.7541 87.3494 79.0833 83.0936 73.4905C81.9452 71.982 79.6117 73.7575 80.7597 75.2662C83.5333 78.9113 85.6595 83.0566 86.9764 87.4444C87.0378 87.6481 87.1522 88.0577 87.1522 88.0577C87.1506 88.0577 87.1492 88.0577 87.1477 88.0577C83.4748 88.0577 79.7764 88.6587 76.3426 89.8217C74.2539 90.6324 72.6828 90.9347 70.8234 89.5038C67.9639 87.3039 65.0429 87.3686 61.9599 89.2266C60.4737 90.1222 59.051 91.3697 57.3825 91.9343C55.1133 92.7024 53.5892 91.4758 53.7303 89.2245C53.8195 87.8034 54.1452 86.4173 54.6982 85.1045C57.0243 79.5812 54.7336 76.3469 49.3461 74.2783C47.3477 73.5108 45.4603 72.7859 44.6543 71.2889C43.9215 69.9286 44.1628 67.9584 45.3712 65.4333C46.2802 63.5337 47.3981 61.7206 48.6988 60.0354C58.577 59.7083 68.2552 63.37 75.7092 69.807C77.5449 71.3922 79.3736 69.1439 77.6612 67.6188C73.3974 63.8209 68.47 60.8334 63.0171 59.0681C59.321 57.8714 55.3977 57.1899 51.466 57.0437V51.5923L52.4756 50.5937C53.865 51.9435 56.6044 54.0238 60.2931 54.0238C65.6366 54.0238 68.9893 49.6579 69.1292 49.472C69.5183 48.956 69.5236 48.2464 69.1425 47.7246C67.0876 44.9094 63.4625 43.0625 59.9885 43.1624L61.2017 41.9624C64.3536 42.1044 67.6435 41.1448 69.9134 38.8778C73.693 35.1029 72.9726 29.6465 72.9401 29.416C72.85 28.7768 72.3524 28.2718 71.7145 28.1723C71.4864 28.1367 66.0761 27.3424 62.2224 31.1914C59.0956 34.3145 58.9871 38.2315 59.1101 39.9067L51.466 47.4679V29.6651C55.613 29.8276 60.024 28.3103 62.9978 25.3366C68.3253 20.0092 67.2268 12.5286 67.1774 12.2127C67.0775 11.5749 66.5723 11.0776 65.9332 10.9877C65.6535 10.948 59.8317 10.1812 54.8799 13.4783C54.3153 11.0522 53.2457 8.76464 51.722 6.75784C49.6008 3.96415 46.6456 1.64122 43.4142 0.223066C42.0322 -0.439873 41.157 0.481712 40.5161 1.63027C39.3924 3.42183 38.5199 5.34965 37.9224 7.36076C37.3825 9.17793 40.1937 10.0135 40.7335 8.19574C41.2485 6.46205 41.9984 4.79795 42.963 3.24823C45.4654 4.48867 47.7244 6.3424 49.3861 8.53102C50.9832 10.6346 51.9837 13.1065 52.3012 15.7133C49.0594 19.3357 48.5367 23.8701 48.5314 26.3815C44.7215 24.1047 41.4723 20.6244 40.4066 16.2173C39.9611 14.3747 37.1105 15.0636 37.5563 16.9064C38.9269 22.5745 43.3626 27.2204 48.5332 29.7157V40.2649L44.7942 36.4828C44.8693 34.8175 44.7008 30.7716 41.7049 27.7797C37.9265 24.0058 32.4652 24.725 32.2349 24.7575C31.5957 24.8474 31.0907 25.3448 30.9908 25.9825C30.955 26.2106 30.1595 31.6162 34.0142 35.4662C36.3586 37.697 39.513 38.8106 42.7378 38.5738L48.5332 44.4363V57.0351C26.3932 57.7318 8.45222 76.5287 8.45828 98.5654C8.45828 100.418 11.3908 100.458 11.3908 98.5664C11.3896 94.8294 11.9491 91.0143 13.0236 87.4478C15.1547 87.0749 18.3871 87.7197 19.713 89.5683C22.0461 92.8205 23.6379 94.571 27.855 94.856C30.4146 95.029 32.943 96.7817 34.1469 99.2172C34.9201 100.782 37.7185 99.8248 36.7758 97.9179C35.099 94.5254 31.675 92.1751 28.0526 91.9304C24.7645 91.7083 23.8185 90.2608 22.0958 87.8593C20.4328 85.5412 17.3467 84.2457 14.0263 84.3968C19.0401 71.5822 31.2921 62.0563 44.936 60.2676C44.1102 61.5204 43.369 62.8238 42.7255 64.1684C41.0903 67.5856 40.8704 70.4493 42.0717 72.6803C43.3933 75.1344 45.9969 76.1344 48.2941 77.0167C51.9996 78.4399 53.6357 80.0739 51.9955 83.9667C51.3143 85.5837 50.913 87.291 50.8031 89.0417C50.5314 93.3689 54.1972 96.1092 58.322 94.7127C60.2346 94.0654 61.7689 92.7661 63.473 91.739C65.4654 90.5384 67.1404 90.3717 69.0344 91.8287C71.6295 93.8255 74.3362 93.8285 77.2828 92.6C80.6393 91.4631 84.2744 90.9171 87.862 91.0014C88.3578 93.4877 88.6078 96.0323 88.608 98.5676C88.608 100.463 91.5405 100.463 91.5405 98.5674C91.5411 96.6077 91.4029 94.6384 91.1308 92.7139ZM65.9706 48.5793C64.9076 49.5834 62.8807 51.0913 60.2933 51.0913C57.6816 51.0913 55.6411 49.5552 54.5876 48.5527C55.5774 47.5633 57.5187 46.0877 60.2933 46.0877C62.9262 46.0877 64.9278 47.5817 65.9706 48.5793ZM36.0871 33.3909C34.223 31.5292 33.8676 29.0548 33.8377 27.6145C35.2926 27.6491 37.7856 28.0084 39.6334 29.8542C41.479 31.6973 41.8344 34.2232 41.8698 35.6757C40.4715 35.6748 38.046 35.3475 36.0871 33.3909ZM64.2951 33.2662C66.1578 31.4056 68.6329 31.0494 70.0764 31.0187C70.0358 32.4787 69.6704 34.9762 67.8413 36.803C65.9936 38.6483 63.4613 39.0026 62.0066 39.0374C62.0058 37.6393 62.3335 35.2253 64.2951 33.2662ZM54.891 17.2394C57.9895 14.145 62.3108 13.7935 64.3604 13.8234C64.406 15.8495 64.0777 20.1132 60.9257 23.2613C57.5987 26.584 53.4338 26.8329 51.4725 26.7346C51.4389 24.7045 51.7738 20.3529 54.891 17.2394Z" fill="black"/>
<path d="M37.8538 48.5191C35.9668 48.5191 35.9637 51.4516 37.8538 51.4516C39.7408 51.4516 39.7439 48.5191 37.8538 48.5191Z" fill="black"/>
<path d="M78.9613 43.2838C80.8482 43.2838 80.8514 40.3513 78.9613 40.3513C77.0745 40.3513 77.0714 43.2838 78.9613 43.2838Z" fill="black"/>
<path d="M28.7883 16.2617C30.6753 16.2617 30.6784 13.3292 28.7883 13.3292C26.9013 13.3292 26.8982 16.2617 28.7883 16.2617Z" fill="black"/>
<path d="M59.9705 3.74968C61.8574 3.74968 61.8606 0.817184 59.9705 0.817184C58.0835 0.817184 58.0804 3.74968 59.9705 3.74968Z" fill="black"/>
<path d="M76.029 21.746C77.916 21.746 77.9191 18.8135 76.029 18.8135C74.142 18.8135 74.1389 21.746 76.029 21.746Z" fill="black"/>
<path d="M24.4196 39.312C26.3066 39.312 26.3097 36.3795 24.4196 36.3795C22.5329 36.3795 22.5297 39.312 24.4196 39.312Z" fill="black"/>
</g>
<defs>
<clipPath id="clip0">
<rect width="100" height="100" fill="white"/>
</clipPath>
</defs>
</svg>
