<svg width="100" height="107" viewBox="0 0 100 107" fill="none" xmlns="http://www.w3.org/2000/svg">
<g filter="url(#filter0_d)">
<path d="M78.125 1.5625H21.875C14.9828 1.5625 9.375 7.17031 9.375 14.0625V87.5C9.375 93.5312 14.2828 98.4375 20.3125 98.4375H89.0625C89.9266 98.4375 90.625 97.7375 90.625 96.875V14.0625C90.625 7.17031 85.0172 1.5625 78.125 1.5625ZM12.5 14.0625C12.5 8.89219 16.7047 4.6875 21.875 4.6875H78.125C83.2953 4.6875 87.5 8.89219 87.5 14.0625V76.5625H20.3125C17.2547 76.5625 14.4859 77.8234 12.5 79.8516V14.0625ZM20.3125 95.3125C16.0047 95.3125 12.5 91.8078 12.5 87.5C12.5 83.1922 16.0047 79.6875 20.3125 79.6875H87.5V82.8125H20.3125C17.7281 82.8125 15.625 84.9156 15.625 87.5C15.625 90.0844 17.7281 92.1875 20.3125 92.1875H87.5V95.3125H20.3125ZM87.5 85.9375V89.0625H20.3125C19.45 89.0625 18.75 88.3609 18.75 87.5C18.75 86.6391 19.45 85.9375 20.3125 85.9375H87.5Z" fill="black"/>
<path d="M32.8125 42.1016V62.5C32.8125 63.3625 33.5109 64.0625 34.375 64.0625H65.625C66.4891 64.0625 67.1875 63.3625 67.1875 62.5V42.1016C74.2094 41.3219 79.6875 35.3516 79.6875 28.125C79.6875 20.3719 73.3797 14.0625 65.625 14.0625C64.3828 14.0625 63.1656 14.2344 61.9828 14.5516C59.5078 10.5187 55.0703 7.8125 50 7.8125C44.9297 7.8125 40.4922 10.5187 38.0172 14.5516C36.8344 14.2344 35.6172 14.0625 34.375 14.0625C26.6203 14.0625 20.3125 20.3719 20.3125 28.125C20.3125 35.3516 25.7906 41.3219 32.8125 42.1016ZM35.9375 60.9375V57.8125H64.0625V60.9375H35.9375ZM34.375 17.1875C35.1531 17.1875 35.9187 17.275 36.6672 17.4359C36.2 18.8328 35.9375 20.3219 35.9375 21.875H39.0625C39.0625 15.8438 43.9703 10.9375 50 10.9375C56.0297 10.9375 60.9375 15.8438 60.9375 21.875H64.0625C64.0625 20.3219 63.8 18.8328 63.3328 17.4359C64.0813 17.275 64.8469 17.1875 65.625 17.1875C71.6547 17.1875 76.5625 22.0938 76.5625 28.125C76.5625 34.1562 71.6547 39.0625 65.625 39.0625C64.7609 39.0625 64.0625 39.7625 64.0625 40.625V54.6875H35.9375V40.625C35.9375 39.7625 35.2391 39.0625 34.375 39.0625C28.3453 39.0625 23.4375 34.1562 23.4375 28.125C23.4375 22.0938 28.3453 17.1875 34.375 17.1875Z" fill="black"/>
<path d="M73.4375 28.125H70.3125C70.3125 30.7094 68.2094 32.8125 65.625 32.8125V35.9375C69.9328 35.9375 73.4375 32.4328 73.4375 28.125Z" fill="black"/>
<path d="M29.6875 67.1875H70.3125V70.3125H29.6875V67.1875Z" fill="black"/>
</g>
<defs>
<filter id="filter0_d" x="-4" y="0" width="108" height="108" filterUnits="userSpaceOnUse" color-interpolation-filters="sRGB">
<feFlood flood-opacity="0" result="BackgroundImageFix"/>
<feColorMatrix in="SourceAlpha" type="matrix" values="0 0 0 0 0 0 0 0 0 0 0 0 0 0 0 0 0 0 127 0" result="hardAlpha"/>
<feOffset dy="4"/>
<feGaussianBlur stdDeviation="2"/>
<feComposite in2="hardAlpha" operator="out"/>
<feColorMatrix type="matrix" values="0 0 0 0 0 0 0 0 0 0 0 0 0 0 0 0 0 0 0.25 0"/>
<feBlend mode="normal" in2="BackgroundImageFix" result="effect1_dropShadow"/>
<feBlend mode="normal" in="SourceGraphic" in2="effect1_dropShadow" result="shape"/>
</filter>
</defs>
</svg>
