<svg width="100" height="100" viewBox="0 0 100 100" fill="none" xmlns="http://www.w3.org/2000/svg">
<path d="M35.9375 85.9375H54.6875V70.3125H35.9375V85.9375ZM39.0625 73.4375H51.5625V82.8125H39.0625V73.4375Z" fill="black"/>
<path d="M90.625 23.4375H85.1266L87.6266 20.3125H78.125V1.5625H65.625V20.3125H56.1234L58.6234 23.4375H9.375C5.06719 23.4375 1.5625 26.9422 1.5625 31.25V90.625C1.5625 94.9328 5.06719 98.4375 9.375 98.4375H90.625C94.9328 98.4375 98.4375 94.9328 98.4375 90.625V31.25C98.4375 26.9422 94.9328 23.4375 90.625 23.4375ZM68.75 23.4375V4.6875H75V23.4375H81.1234L71.875 34.9984L62.6266 23.4375H68.75ZM34.375 42.1875H25V40.625C25 39.7641 25.7016 39.0625 26.5625 39.0625H32.8125C33.6734 39.0625 34.375 39.7641 34.375 40.625V42.1875ZM37.5 45.3125C40.0844 45.3125 42.1875 47.4156 42.1875 50V54.6875H40.625C40.075 54.6875 39.5531 54.8 39.0625 54.975V51.5625C39.0625 49.8391 37.6609 48.4375 35.9375 48.4375H23.4375C21.7141 48.4375 20.3125 49.8391 20.3125 51.5625V82.8125C20.3125 84.5359 21.7141 85.9375 23.4375 85.9375H29.6875V89.0625H17.1875V50C17.1875 47.4156 19.2906 45.3125 21.875 45.3125H37.5ZM51.5625 60.9375H39.0625V59.375C39.0625 58.5125 39.7641 57.8125 40.625 57.8125H50C50.8609 57.8125 51.5625 58.5125 51.5625 59.375V60.9375ZM29.6875 68.75V82.8125H23.4375V51.5625H35.9375V59.375V61.0953C32.3766 61.8219 29.6875 64.9781 29.6875 68.75ZM32.8125 68.75C32.8125 66.1656 34.9156 64.0625 37.5 64.0625H53.125C55.7094 64.0625 57.8125 66.1656 57.8125 68.75V71.875V87.5V89.0625H32.8125V68.75ZM60.9375 65.625V50C60.9375 49.1391 61.6391 48.4375 62.5 48.4375H67.1875V54.6875H76.5625V48.4375H81.25C82.1109 48.4375 82.8125 49.1391 82.8125 50V65.625C82.8125 66.4875 82.1109 67.1875 81.25 67.1875H62.5C61.6391 67.1875 60.9375 66.4875 60.9375 65.625ZM70.3125 48.4375H73.4375V51.5625H70.3125V48.4375ZM70.3125 70.3125H73.4375V73.4375H70.3125V70.3125ZM60.9375 87.5V71.875C60.9375 71.0125 61.6391 70.3125 62.5 70.3125H67.1875V76.5625H76.5625V70.3125H81.25C82.1109 70.3125 82.8125 71.0125 82.8125 71.875V87.5C82.8125 88.3625 82.1109 89.0625 81.25 89.0625H62.5C61.6391 89.0625 60.9375 88.3625 60.9375 87.5ZM84.7188 68.75C85.4688 67.9187 85.9375 66.8297 85.9375 65.625V50C85.9375 47.4156 83.8344 45.3125 81.25 45.3125H62.5C59.9156 45.3125 57.8125 47.4156 57.8125 50V62.5406C56.9 61.85 55.8484 61.3328 54.6875 61.0969V59.375C54.6875 56.7906 52.5844 54.6875 50 54.6875H45.3125V50C45.3125 45.6922 41.8078 42.1875 37.5 42.1875V40.625C37.5 38.0406 35.3969 35.9375 32.8125 35.9375H26.5625C23.9781 35.9375 21.875 38.0406 21.875 40.625V42.1875C17.5672 42.1875 14.0625 45.6922 14.0625 50V89.0625H10.9375V32.8125H66.125L71.875 40.0016L77.625 32.8125H89.0625V89.0625H85.65C85.825 88.5719 85.9375 88.05 85.9375 87.5V71.875C85.9375 70.6703 85.4672 69.5813 84.7188 68.75ZM95.3125 90.625C95.3125 93.2094 93.2094 95.3125 90.625 95.3125H9.375C6.79063 95.3125 4.6875 93.2094 4.6875 90.625V31.25C4.6875 28.6656 6.79063 26.5625 9.375 26.5625H61.1234L63.6234 29.6875H10.9375C9.21406 29.6875 7.8125 31.0891 7.8125 32.8125V89.0625C7.8125 90.7859 9.21406 92.1875 10.9375 92.1875H62.5H81.25H89.0625C90.7859 92.1875 92.1875 90.7859 92.1875 89.0625V32.8125C92.1875 31.0891 90.7859 29.6875 89.0625 29.6875H80.1266L82.6266 26.5625H90.625C93.2094 26.5625 95.3125 28.6656 95.3125 31.25V90.625Z" fill="black"/>
<path d="M42.1875 76.5625H48.4375V79.6875H42.1875V76.5625Z" fill="black"/>
</svg>
