<svg width="100" height="100" viewBox="0 0 100 100" fill="none" xmlns="http://www.w3.org/2000/svg">
<g clip-path="url(#clip0)">
<path d="M49.0136 59.0691C49.8046 59.0691 50.4459 58.4279 50.4459 57.6369C50.4459 56.8459 49.8046 56.2047 49.0136 56.2047C48.2226 56.2047 47.5814 56.8459 47.5814 57.6369C47.5814 58.4279 48.2226 59.0691 49.0136 59.0691Z" fill="black"/>
<path d="M51.3053 63.6523C52.0963 63.6523 52.7375 63.0111 52.7375 62.2201C52.7375 61.4291 52.0963 60.7879 51.3053 60.7879C50.5143 60.7879 49.873 61.4291 49.873 62.2201C49.873 63.0111 50.5143 63.6523 51.3053 63.6523Z" fill="black"/>
<path d="M48.3453 67.9734C49.1363 67.9734 49.7775 67.3322 49.7775 66.5412C49.7775 65.7502 49.1363 65.109 48.3453 65.109C47.5543 65.109 46.9131 65.7502 46.9131 66.5412C46.9131 67.3322 47.5543 67.9734 48.3453 67.9734Z" fill="black"/>
<path d="M53.9063 48.5619V46.2586C53.9063 44.8733 54.8143 43.6455 56.1656 43.2031C64.1524 40.59 69.866 33.2803 69.866 23.7219C69.866 22.9129 69.2104 22.257 68.4012 22.257H31.5984C30.7895 22.257 30.1336 22.9129 30.1336 23.7219C30.1336 32.8332 35.5113 40.4801 43.8342 43.2033C45.1856 43.6455 46.0936 44.8733 46.0936 46.2586V48.5619C46.0936 50.1235 47.3641 51.394 48.9256 51.394H51.074C52.6358 51.394 53.9063 50.1235 53.9063 48.5619ZM50.9766 46.2586V48.4643H49.0235V46.2586C49.0235 43.6027 47.3043 41.2561 44.7453 40.419C37.9883 38.208 33.6315 32.4445 33.1152 25.1869H66.8848C66.3684 32.4445 62.0117 38.208 55.2547 40.419C52.6959 41.2559 50.9766 43.6027 50.9766 46.2586Z" fill="black"/>
<path d="M75.0795 24.3174V16.2404C77.3379 15.4588 78.8795 13.4395 79.0793 11.101C81.2398 10.1109 82.7449 7.92949 82.7449 5.40195V2.44141C82.7449 1.09512 81.6498 0 80.3035 0H33.8008C32.9918 0 32.3359 0.655859 32.3359 1.46484C32.3359 2.27383 32.9918 2.92969 33.8008 2.92969H79.8152V5.40176C79.8152 7.09023 78.5535 8.48613 76.9242 8.70527C75.9721 8.75215 76.3123 8.73867 23.5217 8.73867C21.7014 8.73867 20.1848 7.25664 20.1848 5.40176V2.92969H26.9648C27.7738 2.92969 28.4297 2.27383 28.4297 1.46484C28.4297 0.655859 27.7738 0 26.9648 0H19.6965C18.3502 0 17.2551 1.09512 17.2551 2.44141V5.40176C17.2551 7.5666 18.3586 9.47812 20.0324 10.6045C20.0351 13.4871 22.0959 15.9498 24.9205 16.4697V24.3172C24.9205 34.608 31.2279 43.8439 40.7226 47.6227V52.2348C31.2279 56.0135 24.9205 65.2494 24.9205 75.5402V82.9943C23.4486 83.2611 22.1365 84.0678 21.2187 85.2984C20.3252 86.4967 19.9238 87.9371 20.0519 89.3828C18.3672 90.5074 17.2551 92.425 17.2551 94.598V97.5586C17.2551 98.9049 18.3502 100 19.6965 100H80.3037C81.65 100 82.7451 98.9049 82.7451 97.5586V94.5982C82.7451 92.0803 81.2517 89.9059 79.1047 88.9105C79.1156 87.5629 78.6697 86.2461 77.8117 85.1629C77.0908 84.2525 76.143 83.5883 75.0797 83.2223V75.5404C75.0797 72.9938 74.699 70.4809 73.9482 68.0717C73.7076 67.2994 72.8875 66.868 72.1139 67.1088C71.3416 67.3494 70.9105 68.1707 71.1512 68.9432C71.8139 71.0701 72.1498 73.2896 72.1498 75.5404V82.8965C70.0732 82.8965 71.3014 82.8959 69.2258 82.8949C67.8738 79.6672 63.851 73.7738 52.091 70.5361C50.7232 70.1596 49.2769 70.1596 47.909 70.5361C36.1474 73.7744 32.125 79.6691 30.7736 82.8963C29.8199 82.8963 28.8469 82.8963 27.8502 82.8963V75.5402C27.8502 66.142 33.8066 57.7398 42.6721 54.6328C43.2594 54.427 43.6525 53.8727 43.6525 53.2504V46.6068C43.6525 45.9846 43.2594 45.4303 42.6721 45.2244C33.8066 42.1172 27.8502 33.7152 27.8502 24.317V16.5707H72.1498V24.3174C72.1498 33.7156 66.1933 42.1178 57.3279 45.2248C56.7406 45.4307 56.3474 45.985 56.3474 46.6072V53.2508C56.3474 53.8731 56.7406 54.4273 57.3279 54.6332C61.7998 56.2006 65.7269 59.2381 68.3859 63.1859C68.8377 63.857 69.7484 64.0344 70.4191 63.5826C71.0902 63.1307 71.2678 62.2203 70.8158 61.5492C68.0023 57.3721 63.933 54.0951 59.2771 52.2359V47.623C68.7721 43.8441 75.0795 34.6082 75.0795 24.3174ZM79.8152 97.0703H20.1848V94.5982C20.1848 92.7529 21.6949 91.2613 23.5217 91.2613H76.4781C78.2877 91.2613 79.8152 92.7324 79.8152 94.5982V97.0703ZM75.515 86.9818C75.832 87.3822 76.0389 87.8453 76.1264 88.3316C21.5217 88.3316 23.4037 88.3199 23.0027 88.3527C23.0836 87.8889 23.2736 87.4439 23.5674 87.05C24.1473 86.2725 25.0363 85.8264 26.0066 85.8264C26.6267 85.8264 72.2734 85.8213 73.2601 85.8338C74.1449 85.8719 74.9613 86.2826 75.515 86.9818ZM48.6865 73.3609C49.5457 73.1244 50.4543 73.1244 51.3133 73.3609C60.6021 75.9184 64.4219 80.2078 65.9555 82.8945C64.5117 82.8945 42.4107 82.8963 34.043 82.8965C35.5762 80.2098 39.3953 75.9189 48.6865 73.3609ZM23.6683 12.5469C23.4441 12.2785 23.2705 11.9775 23.1516 11.6578C23.159 11.6582 23.1666 11.658 23.1742 11.6584C23.6471 11.6844 75.7822 11.6686 75.9805 11.6686C75.2275 13.6646 73.0523 13.6664 73.4504 13.6238C73.2238 13.648 74.065 13.641 26.3853 13.641C25.3734 13.641 24.4639 13.4988 23.6683 12.5469Z" fill="black"/>
</g>
<defs>
<clipPath id="clip0">
<rect width="100" height="100" fill="white"/>
</clipPath>
</defs>
</svg>
